<?xml version="1.0" encoding="utf-8"?>
<!-- Generator: Adobe Illustrator 22.1.0, SVG Export Plug-In . SVG Version: 6.00 Build 0)  -->
<svg version="1.1" id="Layer_1" xmlns="http://www.w3.org/2000/svg" xmlns:xlink="http://www.w3.org/1999/xlink" x="0px" y="0px"
	 viewBox="0 0 140 62" style="enable-background:new 0 0 140 62;" xml:space="preserve">
<style type="text/css">
	.st0{fill:none;}
	.st1{fill:#2A4177;}
	.st2{fill:#F14B12;}
	.st3{opacity:0.7;}
	.st4{fill:#4F4F4F;}
</style>
<path class="st0" d="M28.21,47.95c3.69-2.31,6.38-5.16,8.08-8.55c1.53-2.99,2.29-5.49,2.29-7.5c0-3.28-0.92-5.64-2.75-7.07
	c-1.64-1.26-4.16-1.89-7.55-1.89h-1.21L17.04,51.41C20.79,51.41,24.52,50.25,28.21,47.95z"/>
<polygon class="st1" points="5.02,15.73 0.61,22.94 16.76,22.94 19.29,15.73 "/>
<polygon class="st1" points="32.15,8.53 21.83,8.53 19.29,15.73 29.62,15.73 "/>
<polygon class="st2" points="29.62,15.73 19.29,15.73 16.76,22.94 27.07,22.94 "/>
<path class="st1" d="M44.67,18.76c-3.19-2.02-7.17-3.03-11.96-3.03h-3.1l-2.54,7.21h1.21c3.39,0,5.91,0.63,7.55,1.89
	c1.83,1.43,2.75,3.79,2.75,7.07c0,2-0.76,4.5-2.29,7.5c-1.7,3.4-4.39,6.25-8.08,8.55c-3.69,2.31-7.41,3.46-11.17,3.46l10.04-28.47
	H16.76L5.13,55.98h9.44c6.47,0,12.51-1.3,18.14-3.89c6.1-2.82,10.76-6.8,13.96-11.93c2.42-3.89,3.63-7.58,3.63-11.07
	C50.31,24.59,48.43,21.15,44.67,18.76z"/>
<g>
	<path class="st1" d="M48.47,46.22v-3.07h5.07c1.36,0,2.5,0.1,3.42,0.29c0.93,0.19,1.67,0.49,2.23,0.9c0.56,0.41,0.96,0.92,1.2,1.54
		c0.24,0.62,0.36,1.36,0.36,2.22v7.31h-9.78c-0.81,0-1.49-0.08-2.02-0.23c-0.53-0.15-0.96-0.38-1.29-0.69
		c-0.32-0.31-0.55-0.71-0.67-1.21c-0.13-0.49-0.19-1.09-0.19-1.77c0-0.69,0.06-1.26,0.19-1.71c0.13-0.45,0.35-0.81,0.67-1.09
		c0.32-0.27,0.75-0.47,1.29-0.58c0.53-0.11,1.21-0.17,2.02-0.17h5.68v-0.11c0-0.28-0.04-0.53-0.13-0.74
		c-0.09-0.21-0.25-0.38-0.48-0.52c-0.24-0.13-0.57-0.23-0.99-0.29c-0.42-0.06-0.98-0.09-1.68-0.09H48.47z M56.65,52.6v-2.28h-4.74
		c-0.44,0-0.74,0.08-0.9,0.24c-0.16,0.16-0.24,0.44-0.24,0.85c0,0.44,0.08,0.75,0.24,0.93c0.16,0.18,0.46,0.26,0.9,0.26H56.65z"/>
	<path class="st1" d="M61.94,43.15h2.19v-4.34h4.56v4.34h4v3.2h-4v4.5c0,0.42,0.13,0.73,0.39,0.91c0.26,0.19,0.72,0.28,1.36,0.28
		h1.71v3.36h-2.27c-1.07,0-1.97-0.08-2.7-0.23c-0.73-0.15-1.32-0.39-1.78-0.71c-0.46-0.33-0.79-0.75-0.98-1.28
		c-0.2-0.53-0.29-1.17-0.29-1.93v-4.9h-2.19V43.15z"/>
	<path class="st1" d="M75.41,46.22v-3.07h5.07c1.36,0,2.5,0.1,3.42,0.29c0.92,0.19,1.67,0.49,2.23,0.9c0.56,0.41,0.96,0.92,1.2,1.54
		c0.24,0.62,0.36,1.36,0.36,2.22v7.31h-9.78c-0.81,0-1.49-0.08-2.02-0.23c-0.54-0.15-0.96-0.38-1.29-0.69
		c-0.32-0.31-0.55-0.71-0.67-1.21c-0.13-0.49-0.19-1.09-0.19-1.77c0-0.69,0.06-1.26,0.19-1.71c0.13-0.45,0.35-0.81,0.67-1.09
		c0.32-0.27,0.75-0.47,1.29-0.58c0.53-0.11,1.21-0.17,2.02-0.17h5.68v-0.11c0-0.28-0.04-0.53-0.13-0.74
		c-0.09-0.21-0.25-0.38-0.48-0.52c-0.24-0.13-0.57-0.23-0.99-0.29c-0.43-0.06-0.98-0.09-1.68-0.09H75.41z M83.58,52.6v-2.28h-4.74
		c-0.44,0-0.74,0.08-0.9,0.24c-0.16,0.16-0.24,0.44-0.24,0.85c0,0.44,0.08,0.75,0.24,0.93c0.16,0.18,0.46,0.26,0.9,0.26H83.58z"/>
	<path class="st2" d="M104.82,43.15V56.1c0,0.9-0.11,1.66-0.34,2.28c-0.23,0.62-0.61,1.12-1.15,1.51c-0.54,0.39-1.23,0.67-2.1,0.85
		C100.36,60.91,99.3,61,98.05,61h-4.25v-3.36h4.28c0.87,0,1.49-0.12,1.86-0.37c0.37-0.25,0.56-0.65,0.56-1.22v-0.82h-4.33
		c-1.26,0-2.31-0.1-3.16-0.3c-0.85-0.2-1.53-0.54-2.04-1.01c-0.51-0.47-0.88-1.09-1.1-1.85c-0.22-0.77-0.33-1.72-0.33-2.85
		c0-1.13,0.11-2.08,0.33-2.86c0.22-0.78,0.59-1.4,1.1-1.88c0.51-0.48,1.19-0.82,2.04-1.02c0.85-0.2,1.9-0.3,3.16-0.3H104.82z
		 M96.09,46.65c-0.85,0-1.43,0.19-1.74,0.58c-0.31,0.39-0.47,1.08-0.47,2.07c0,0.49,0.03,0.91,0.1,1.25
		c0.07,0.34,0.19,0.61,0.36,0.81c0.17,0.2,0.4,0.35,0.69,0.44c0.29,0.09,0.64,0.13,1.07,0.13h4.41v-5.27H96.09z"/>
	<path class="st2" d="M119.38,52.31v3.1h-5.35c-1.51,0-2.74-0.12-3.68-0.36c-0.94-0.24-1.67-0.61-2.19-1.11
		c-0.52-0.5-0.87-1.15-1.06-1.93c-0.19-0.79-0.28-1.73-0.28-2.85c0-1.06,0.09-1.99,0.27-2.78c0.18-0.79,0.53-1.46,1.04-1.99
		c0.52-0.53,1.25-0.92,2.2-1.18c0.95-0.26,2.2-0.38,3.74-0.38c1.49,0,2.71,0.12,3.64,0.36c0.93,0.24,1.66,0.6,2.19,1.09
		c0.53,0.49,0.89,1.1,1.08,1.83c0.19,0.73,0.29,1.59,0.29,2.58v1.56h-10.34c0.02,0.41,0.08,0.74,0.19,1.01
		c0.11,0.26,0.29,0.48,0.55,0.63c0.25,0.16,0.59,0.27,0.99,0.33c0.41,0.06,0.92,0.09,1.53,0.09H119.38z M114.24,45.69
		c-0.61,0-1.13,0.03-1.55,0.09c-0.42,0.06-0.76,0.17-1.02,0.33c-0.25,0.16-0.44,0.38-0.55,0.65c-0.11,0.27-0.17,0.61-0.17,1.02v0.16
		h6.34v-0.16c0-0.41-0.05-0.75-0.15-1.02c-0.1-0.27-0.28-0.49-0.52-0.65c-0.25-0.16-0.56-0.27-0.96-0.33
		C115.28,45.72,114.8,45.69,114.24,45.69z"/>
	<path class="st2" d="M123.15,43.15h8.5c1.26,0,2.32,0.1,3.18,0.29c0.87,0.19,1.57,0.49,2.1,0.89c0.53,0.4,0.92,0.91,1.15,1.54
		c0.23,0.63,0.34,1.36,0.34,2.21v7.34h-4.58v-6.75c0-0.6-0.15-1.03-0.46-1.3c-0.3-0.27-0.88-0.4-1.73-0.4h-3.92v8.45h-4.58V43.15z"
		/>
</g>
<g class="st3">
	<path class="st4" d="M92.08,29.25c-1.37,0.84-2.06,2.1-2.06,3.79c0,0.83,0.17,1.56,0.5,2.19c0.19,0.36,0.4,0.65,0.63,0.88
		c0.06,0.06,0.33,0.28,0.81,0.67c0.17,0.14,0.25,0.29,0.25,0.47c0,0.15-0.05,0.26-0.16,0.35c-0.11,0.08-0.24,0.13-0.38,0.13
		c-0.3,0-0.64-0.15-1.04-0.45c-0.77-0.59-1.33-1.4-1.66-2.41c-0.18-0.57-0.27-1.17-0.27-1.81c0-1.19,0.29-2.2,0.88-3.06
		c0.51-0.73,1.23-1.35,2.14-1.83L92.08,29.25z"/>
	<path class="st4" d="M96.73,36.75c0,0.19-0.06,0.34-0.18,0.45c-0.12,0.11-0.27,0.16-0.44,0.16c-0.17,0-0.31-0.05-0.44-0.16
		c-0.12-0.11-0.19-0.26-0.19-0.45v-2.3h-3.3v-0.99h7.46c0.15,0,0.28,0.05,0.37,0.15c0.09,0.1,0.13,0.21,0.13,0.34
		c0,0.14-0.04,0.25-0.13,0.35c-0.09,0.1-0.21,0.15-0.37,0.15h-2.92V36.75z M99.13,31.95c0.22,0.08,0.32,0.23,0.32,0.44
		c0,0.13-0.05,0.24-0.14,0.32c-0.1,0.09-0.23,0.12-0.4,0.1c-0.33-0.03-0.8-0.19-1.4-0.49c-0.7-0.35-1.17-0.72-1.39-1.09
		c-0.2,0.37-0.65,0.73-1.32,1.07c-0.59,0.3-1.07,0.47-1.45,0.51c-0.15,0.02-0.28-0.02-0.38-0.11s-0.15-0.2-0.15-0.33
		c0-0.2,0.1-0.34,0.31-0.41c0.64-0.22,1.16-0.5,1.58-0.85c0.47-0.4,0.71-0.81,0.72-1.24h-2.34v-1h6.08v1h-2.33
		c0.01,0.42,0.27,0.84,0.78,1.25C98.03,31.46,98.54,31.74,99.13,31.95z"/>
	<path class="st4" d="M100.01,36.76c1.37-0.85,2.06-2.11,2.06-3.79c0-0.82-0.17-1.55-0.5-2.19c-0.16-0.31-0.37-0.59-0.64-0.85
		c-0.12-0.12-0.38-0.35-0.8-0.69c-0.17-0.14-0.25-0.3-0.25-0.48c0-0.14,0.06-0.26,0.17-0.34s0.24-0.13,0.38-0.13
		c0.28,0,0.63,0.15,1.04,0.46c0.77,0.6,1.32,1.4,1.65,2.41c0.19,0.57,0.28,1.18,0.28,1.82c0,1.19-0.29,2.21-0.88,3.05
		c-0.51,0.74-1.23,1.35-2.14,1.83L100.01,36.76z"/>
	<path class="st4" d="M107.38,34.01c-0.56,0.25-1.15,0.36-1.79,0.34c-0.52-0.02-0.9-0.15-1.14-0.39c-0.26-0.25-0.39-0.66-0.39-1.21
		V29h3.15v1.01h-1.96v2.71c0,0.37,0.19,0.57,0.57,0.59c0.42,0.03,0.83-0.02,1.22-0.14c0.07-0.02,0.13-0.03,0.19-0.03
		c0.14,0,0.24,0.04,0.32,0.13c0.08,0.08,0.12,0.18,0.12,0.3C107.68,33.77,107.58,33.92,107.38,34.01z M109.49,35.5
		c0,0.2-0.06,0.35-0.18,0.47s-0.26,0.17-0.42,0.17s-0.3-0.06-0.42-0.17s-0.18-0.27-0.18-0.47v-3.49h-1.5v-1h1.5v-2.18h1.19V35.5z
		 M111.32,35.53c0,0.2-0.06,0.35-0.18,0.46c-0.12,0.11-0.26,0.17-0.42,0.17c-0.16,0-0.3-0.05-0.42-0.17s-0.18-0.27-0.18-0.46v-6.7
		h1.19V35.53z"/>
	<path class="st4" d="M117.07,31.44c0,0.77-0.22,1.38-0.67,1.84c-0.45,0.45-1.05,0.68-1.81,0.68c-0.76,0-1.36-0.23-1.81-0.68
		c-0.45-0.45-0.67-1.07-0.67-1.84c0-0.77,0.22-1.38,0.67-1.83c0.45-0.45,1.05-0.68,1.81-0.68c0.76,0,1.36,0.23,1.81,0.68
		C116.85,30.07,117.07,30.68,117.07,31.44z M115.77,31.44c0-0.47-0.11-0.84-0.33-1.1c-0.22-0.25-0.5-0.37-0.84-0.37
		s-0.63,0.12-0.84,0.37c-0.23,0.27-0.34,0.63-0.34,1.1c0,0.47,0.11,0.83,0.33,1.09c0.22,0.26,0.51,0.39,0.85,0.39
		s0.63-0.13,0.85-0.39C115.66,32.28,115.77,31.91,115.77,31.44z M119.18,35.51c0,0.2-0.06,0.35-0.19,0.46
		c-0.12,0.11-0.27,0.17-0.44,0.17c-0.17,0-0.32-0.06-0.44-0.17c-0.12-0.11-0.18-0.27-0.18-0.46v-6.7h1.24V35.51z"/>
	<path class="st4" d="M124.09,31.11v0.94h-2.35v0.71c0,0.29,0.12,0.48,0.35,0.57c0.14,0.05,0.38,0.07,0.74,0.07
		c0.67,0,1.21-0.06,1.6-0.18c0.07-0.02,0.13-0.03,0.19-0.03c0.28,0,0.43,0.14,0.43,0.41c0,0.2-0.1,0.35-0.29,0.44
		c-0.25,0.12-0.64,0.22-1.18,0.3c-0.45,0.06-0.88,0.09-1.29,0.09c-0.12,0-0.23,0-0.32-0.01c-0.51-0.05-0.89-0.19-1.12-0.41
		c-0.26-0.25-0.39-0.64-0.39-1.17v-3.84h4.13v1.01h-2.87v1.08H124.09z M127.28,35.5c0,0.2-0.06,0.35-0.19,0.47
		c-0.12,0.11-0.27,0.17-0.43,0.17c-0.17,0-0.32-0.06-0.44-0.17c-0.12-0.11-0.19-0.27-0.19-0.47v-3.45h-1.37v-0.97h1.37v-2.24h1.25
		V35.5z"/>
	<path class="st4" d="M132.17,32.74c0.12,0.1,0.19,0.22,0.19,0.37c0,0.12-0.04,0.22-0.12,0.31c-0.08,0.09-0.19,0.13-0.32,0.13
		c-0.26,0-0.58-0.19-0.97-0.56c-0.35-0.34-0.59-0.65-0.7-0.92c-0.11,0.28-0.32,0.58-0.64,0.9c-0.3,0.3-0.58,0.51-0.85,0.64
		c-0.08,0.04-0.16,0.06-0.25,0.06c-0.12,0-0.23-0.04-0.31-0.13c-0.09-0.09-0.13-0.19-0.13-0.31c0-0.15,0.07-0.28,0.2-0.39
		c0.48-0.38,0.83-0.85,1.07-1.42c0.19-0.44,0.28-0.86,0.28-1.28v-0.19h-1.31v-0.98h3.86v0.98h-1.31v0.19
		C130.84,31.14,131.28,32.01,132.17,32.74z M135.27,36.15c0.17,0,0.3,0.05,0.39,0.14c0.09,0.1,0.14,0.21,0.14,0.35
		c0,0.14-0.05,0.26-0.14,0.35c-0.1,0.11-0.23,0.17-0.39,0.17h-4.33c-0.38,0-0.64-0.07-0.79-0.22s-0.23-0.42-0.23-0.81v-1.95h1.27
		v1.65c0,0.22,0.11,0.32,0.32,0.32H135.27z M131.58,31.46v-0.95h1.18v-1.69h1.11v5c0,0.2-0.06,0.35-0.17,0.46
		c-0.11,0.11-0.24,0.16-0.39,0.16c-0.15,0-0.29-0.06-0.39-0.17c-0.11-0.11-0.16-0.26-0.16-0.45v-2.37H131.58z M134.42,33.93v-5.1
		h1.15v5.1c0,0.19-0.06,0.34-0.18,0.45c-0.12,0.11-0.25,0.16-0.41,0.16s-0.29-0.05-0.4-0.16C134.48,34.28,134.42,34.13,134.42,33.93
		z"/>
</g>
<polygon class="st2" points="21.94,6.85 45.72,1 33.7,10.75 34.59,6.62 "/>
</svg>
