<?xml version="1.0" standalone="no"?>
<!DOCTYPE svg PUBLIC "-//W3C//DTD SVG 20010904//EN"
 "http://www.w3.org/TR/2001/REC-SVG-20010904/DTD/svg10.dtd">
<svg version="1.0" xmlns="http://www.w3.org/2000/svg"
 width="512.000000pt" height="512.000000pt" viewBox="0 0 512.000000 512.000000"
 preserveAspectRatio="xMidYMid meet">
<metadata>
Created by potrace 1.14, written by Peter Selinger 2001-2017
</metadata>
<g transform="translate(0.000000,512.000000) scale(0.100000,-0.100000)"
fill="#000000" stroke="none">
<path d="M0 2560 l0 -2560 2560 0 2560 0 0 2560 0 2560 -2560 0 -2560 0 0
-2560z m4779 1694 c-135 -125 -392 -386 -544 -554 -771 -853 -1285 -1718
-1478 -2486 -20 -77 -43 -189 -52 -249 -23 -149 -26 -157 -61 -167 -77 -23
-667 -17 -809 8 -29 5 -67 66 -554 874 -288 478 -524 872 -525 876 -1 9 796
584 807 581 4 -1 138 -249 297 -551 223 -425 290 -544 294 -525 133 636 448
1395 889 2142 l81 137 874 0 875 0 -94 -86z"/>
</g>
</svg>
