<?xml version="1.0" encoding="iso-8859-1"?>
<!-- Generator: Adobe Illustrator 19.0.0, SVG Export Plug-In . SVG Version: 6.00 Build 0)  -->
<svg version="1.1" id="Layer_1" xmlns="http://www.w3.org/2000/svg" xmlns:xlink="http://www.w3.org/1999/xlink" x="0px" y="0px"
	 viewBox="0 0 512 512" style="enable-background:new 0 0 512 512;" xml:space="preserve">
<g>
	<g>
		<path d="M495.304,205.912H450.05c-4.649-17.919-11.927-35.355-21.481-51.456l33.795-33.795c6.52-6.52,6.52-17.091,0-23.611
			l-47.416-47.416c-6.518-6.519-17.09-6.52-23.611,0l-33.795,33.795c-16.102-9.553-33.538-16.831-51.456-21.48V16.696
			c0-9.22-7.475-16.696-16.696-16.696h-66.783c-9.22,0-16.696,7.475-16.696,16.696V61.95c-17.919,4.648-35.355,11.926-51.456,21.48
			l-33.795-33.794c-6.519-6.52-17.091-6.52-23.611,0L49.635,97.051c-6.52,6.519-6.52,17.091,0,23.611l33.794,33.795
			c-9.553,16.102-16.83,33.538-21.48,51.456H16.696C7.475,205.913,0,213.388,0,222.609v66.783c0,9.22,7.475,16.696,16.696,16.696
			H61.95c4.648,17.918,11.926,35.354,21.48,51.457l-33.794,33.795c-6.52,6.52-6.52,17.091,0,23.611l47.416,47.416
			c3.131,3.131,7.377,4.891,11.805,4.891c4.428,0,8.675-1.76,11.805-4.891l33.794-33.795c16.104,9.553,33.54,16.831,51.457,21.479
			v45.254c0,9.22,7.475,16.696,16.696,16.696h66.783c9.22,0,16.696-7.475,16.696-16.696V450.05
			c17.919-4.649,35.354-11.926,51.456-21.479l33.794,33.795c6.515,6.516,17.092,6.519,23.611,0l47.417-47.417
			c6.516-6.515,6.52-17.092,0-23.611l-33.795-33.795c9.553-16.102,16.831-33.538,21.481-51.457h45.255
			c9.22,0,16.696-7.475,16.696-16.696v-66.783C512,213.387,504.525,205.912,495.304,205.912z M478.609,272.696h-41.962
			c-8.068,0-14.983,5.77-16.426,13.708c-4.105,22.578-13.331,44.683-26.677,63.928c-4.602,6.635-3.797,15.612,1.913,21.321
			l31.492,31.491l-23.806,23.805l-31.491-31.491c-5.709-5.709-14.685-6.516-21.32-1.913c-19.245,13.348-41.351,22.573-63.928,26.677
			c-7.937,1.443-13.708,8.357-13.708,16.425v41.962h-33.391v-41.962c0-8.07-5.771-14.983-13.708-16.426
			c-22.576-4.105-44.683-13.33-63.93-26.677c-6.636-4.604-15.61-3.795-21.319,1.913l-31.491,31.492l-23.805-23.805l31.491-31.491
			c5.71-5.709,6.516-14.685,1.914-21.32c-13.349-19.247-22.573-41.353-26.677-63.928c-1.443-7.938-8.358-13.709-16.426-13.709
			H33.391v-33.391h41.962c8.068,0,14.983-5.77,16.426-13.708c4.105-22.577,13.331-44.683,26.677-63.928
			c4.601-6.635,3.795-15.61-1.914-21.32l-31.491-31.492l23.805-23.805l31.492,31.491c5.709,5.71,14.685,6.516,21.32,1.913
			c19.243-13.348,41.348-22.573,63.928-26.676c7.937-1.443,13.708-8.357,13.708-16.426V33.391h33.391v41.962
			c0,8.07,5.771,14.983,13.708,16.426c22.577,4.105,44.683,13.329,63.928,26.676c6.635,4.601,15.612,3.795,21.32-1.913
			l31.492-31.491l23.805,23.805l-31.492,31.492c-5.71,5.709-6.516,14.685-1.913,21.32c13.346,19.245,22.571,41.35,26.677,63.928
			c1.444,7.938,8.358,13.708,16.426,13.708h41.962V272.696z"/>
	</g>
</g>
<g>
	<g>
		<path d="M256.024,155.934c-55.236,0-100.174,44.938-100.174,100.174s44.938,100.174,100.174,100.174
			s100.174-44.938,100.174-100.174S311.26,155.934,256.024,155.934z M256.024,322.891c-36.824,0-66.783-29.959-66.783-66.783
			s29.959-66.783,66.783-66.783c36.824,0,66.783,29.959,66.783,66.783S292.848,322.891,256.024,322.891z"/>
	</g>
</g>
<g>
</g>
<g>
</g>
<g>
</g>
<g>
</g>
<g>
</g>
<g>
</g>
<g>
</g>
<g>
</g>
<g>
</g>
<g>
</g>
<g>
</g>
<g>
</g>
<g>
</g>
<g>
</g>
<g>
</g>
</svg>
